<?xml version="1.0" encoding="iso-8859-1"?>
<!-- Generator: Adobe Illustrator 19.0.0, SVG Export Plug-In . SVG Version: 6.00 Build 0)  -->
<svg version="1.1" id="Layer_1" xmlns="http://www.w3.org/2000/svg" xmlns:xlink="http://www.w3.org/1999/xlink" x="0px" y="0px"
	 viewBox="0 0 511.992 511.992" style="enable-background:new 0 0 511.992 511.992;" xml:space="preserve">
<g>
	<g>
		<path d="M330.726,134.93c-23.094,0-48.062,4.781-74.727,16.305c-26.656-11.516-51.641-16.305-74.727-16.305c0,0-0.015,0-0.022,0
			v-0.001C67.961,134.929,0,250.132,0,250.132c58.351,56.118,111.336,103.602,177.555,121.384
			c13.344,3.562,54.844,5.547,89.875,5.547c22.938,0,43.094-0.844,50.781-2.641c68.984-16.125,132.562-65.406,193.781-124.289
			C511.992,250.133,444.023,134.93,330.726,134.93z M181.25,156.257v-20.422l0.022,20.423c21.625,0.008,43.914,4.906,66.266,14.562
			l8.461,3.656l8.461-3.656c22.344-9.664,44.656-14.562,66.266-14.562c22.391,0,44.672,5.242,66.234,15.586
			c17.719,8.508,35.062,20.469,51.547,35.562c10.203,9.336,18.797,18.75,25.688,27.023c-47.359-4.469-90.141,2.234-131.672,8.742
			c-29.719,4.656-57.781,9.055-85.812,9.055c-27.227,0-50.984-4.125-76.133-8.492c-37.766-6.562-80.234-13.938-143.297-8.711
			C62.922,204.007,113.414,156.257,181.25,156.257z M313.367,353.641c-3.094,0.719-16.656,2.094-45.938,2.094
			c-40.984,0-75.695-2.5-84.344-4.828c-28.062-7.531-54.961-21.172-84.648-42.922c-20.836-15.25-41.242-33.25-60.875-51.594
			c61.031-5.242,100.812,1.656,139.359,8.359c26.086,4.531,50.719,8.812,79.789,8.812c29.703,0,58.562-4.516,89.109-9.312
			c40.891-6.422,83.047-13.016,128.781-8.328c-24.75,22.453-46.938,40.156-68.516,54.703
			C373.492,332.609,343.164,346.672,313.367,353.641z"/>
	</g>
</g>
<g>
</g>
<g>
</g>
<g>
</g>
<g>
</g>
<g>
</g>
<g>
</g>
<g>
</g>
<g>
</g>
<g>
</g>
<g>
</g>
<g>
</g>
<g>
</g>
<g>
</g>
<g>
</g>
<g>
</g>
</svg>
